<svg xmlns="http://www.w3.org/2000/svg" viewBox="0 0 32 32" fill="none">
  <rect width="32" height="32" rx="6" fill="#2563eb"/>
  <path d="M9 8h10l4 4v12a2 2 0 0 1-2 2H9a2 2 0 0 1-2-2V10a2 2 0 0 1 2-2z" fill="white" opacity="0.9"/>
  <path d="M19 8v4h4" stroke="white" stroke-width="1.5" stroke-linecap="round" stroke-linejoin="round" opacity="0.6"/>
  <rect x="10" y="15" width="8" height="1.5" rx="0.75" fill="#2563eb" opacity="0.6"/>
  <rect x="10" y="18" width="12" height="1.5" rx="0.75" fill="#2563eb" opacity="0.6"/>
  <rect x="10" y="21" width="6" height="1.5" rx="0.75" fill="#2563eb" opacity="0.6"/>
  <circle cx="22" cy="22" r="5" fill="#10b981"/>
  <path d="M20 22l1.5 1.5 3-3" stroke="white" stroke-width="1.2" stroke-linecap="round" stroke-linejoin="round"/>
</svg>
